# xmcd CD database file
# Copyright (C) 1995-1998 Ti Kan
#
# Track frame offsets:
#	150
#	17137
#	37410
#
# Disc length: 734 seconds
#
# Revision: 1
# Processed by: cddbd v1.5PL3 Copyright (c) Steve Scherf et al.
# Submitted via: CDex 1.30JRelease
#
DISCID=2302dc03
DTITLE=GO!GO!7188 - Aa seishun
DYEAR=1900
DGENRE=Other
TTITLE0=Aa seishun
TTITLE1=A.M.7:30
TTITLE2=kaminariganattetakusannamegahuruyoru
EXTD=ID3G:  12
EXTT0=
EXTT1=
EXTT2=
PLAYORDER=
